<svg version="1.1" xmlns="http://www.w3.org/2000/svg" xmlns:xlink="http://www.w3.org/1999/xlink" width="471.9097" height="336.50755" viewBox="0,0,471.9097,336.50755"><g transform="translate(-3.34484,-3.34414)"><g data-paper-data="{&quot;isPaintingLayer&quot;:true}" fill-rule="nonzero" stroke="none" stroke-width="1" stroke-linecap="butt" stroke-linejoin="miter" stroke-miterlimit="10" stroke-dasharray="" stroke-dashoffset="0" style="mix-blend-mode: normal"><g><path d="M110.77572,30.93376c0.01903,0.19029 1.60983,19.77841 -1.04658,36.91944c-1.41954,9.16802 -5.58682,17.73854 -13.11457,26.97125c-5.98642,7.34507 -13.00801,13.01942 -19.08957,17.60153c-5.93598,4.48876 -12.15893,8.58484 -18.62908,12.26208c-1.06097,0.60079 -2.36496,0.576 -3.40233,-0.0647c-1.12269,-0.68884 -2.43948,-1.53752 -3.9123,-2.51559c-0.67836,-0.44998 -1.07949,-1.21561 -1.06329,-2.02949c0.0162,-0.81387 0.44748,-1.56294 1.14321,-1.98557c5.02738,-3.04839 14.33621,-8.82931 20.19704,-13.25538c17.56728,-13.24396 26.99789,-26.16063 28.83987,-39.50354c1.80011,-13.08031 1.23686,-27.14631 1.10366,-29.86361c-9.75791,-1.6555 -18.82317,-4.78 -26.23294,-9.03482c-8.34978,-4.79142 -14.30957,-9.6209 -17.86793,-12.50945l-0.04947,-0.03806c-5.77312,4.69508 -11.91658,8.91545 -18.37029,12.61982c-9.89111,5.71241 -20.61948,8.0301 -26.34711,8.91684c-0.19029,10.7512 -0.4643,30.34694 6.64481,43.78119c3.50508,6.62198 8.32314,12.10224 11.74831,15.53121c3.67254,3.67634 6.88838,6.16529 8.6276,7.24993c3.8774,-2.12213 7.6297,-4.46525 11.23834,-7.01778c4.8467,-3.37208 9.46666,-7.0589 13.83004,-11.03663c4.41958,-4.02988 8.4839,-8.4329 12.14791,-13.16023c2.79722,-3.63828 5.78091,-9.83402 4.99313,-15.31048c-0.42624,-2.95325 -1.90287,-5.36989 -4.38421,-7.18904c-3.75626,-2.74774 -8.57052,-2.49276 -13.2059,0.70026c-1.68975,1.18739 -3.26532,2.52701 -4.7115,3.99602c-0.5916,0.60253 -1.40097,0.94137 -2.24538,0.94002c-0.84868,0.00381 -1.66691,-0.33871 -2.2568,-0.94763c-1.14553,-1.16456 -2.83527,-2.78199 -4.38421,-3.87043c-3.27674,-2.30628 -6.22999,-2.97609 -9.8835,-2.22636c-2.54796,0.52825 -4.77652,2.05877 -6.18432,4.2472c-1.23686,1.89526 -2.48515,5.16438 -1.40812,10.00909c1.73922,7.8284 9.97483,15.47032 14.732,19.32933c0.50506,0.40952 0.79202,1.02983 0.77713,1.67988c-0.01489,0.65005 -0.32996,1.25657 -0.85324,1.64253c-1.15314,0.84107 -2.35575,1.724 -3.57359,2.59171c-1.17851,0.843 -2.77693,0.78675 -3.89327,-0.13701c-3.80193,-3.15115 -7.04822,-6.44692 -9.66276,-9.78455c-3.58881,-4.59733 -5.86083,-9.16041 -6.73615,-13.56364c-2.91139,-14.595 5.58682,-23.23402 14.71298,-25.0798c10.06237,-2.03607 16.82135,3.93133 18.64811,5.80375c1.76206,-1.79631 5.17961,-4.66964 9.97483,-5.91411c4.96649,-1.28634 10.02811,-0.36154 15.03646,2.75916c4.64192,2.8476 7.84734,7.5415 8.81028,12.90144c1.32059,7.21948 -1.15694,15.37137 -6.97972,22.94478c-9.44203,12.28492 -20.44441,21.17511 -28.01402,26.46889c-1.57177,1.09986 -3.15496,2.17308 -4.7115,3.18921c-2.88094,1.88384 -5.13394,3.21965 -6.51542,4.01505c-1.67452,0.96666 -2.7896,1.53371 -3.1207,1.67833c-1.43857,0.63556 -3.16257,0.60892 -4.39182,-0.0647c-0.35393,-0.1979 -1.67833,-0.93621 -3.74104,-2.36717c-3.94063,-2.73358 -7.62224,-5.82282 -10.99858,-9.22891c-5.0426,-5.09207 -9.05385,-10.58375 -11.91195,-16.30377c-4.73814,-9.47248 -7.01397,-19.74796 -7.62289,-34.35057c-0.41863,-10.04714 0.38057,-17.65861 0.46811,-18.49588c0.25747,-2.18426 2.03057,-3.87749 4.22437,-4.03408c0.1294,-0.01142 14.20301,-1.27873 26.41181,-8.33456c12.54751,-7.24993 19.80505,-13.81102 19.87736,-13.87571c1.75778,-1.63811 4.47495,-1.66452 6.26424,-0.06089c0.31968,0.28543 7.93877,7.07106 19.78983,13.89855c11.92337,6.87316 25.57455,8.31934 26.14541,8.38023c2.18969,0.20402 3.92497,1.93611 4.13303,4.12542z" fill="#0073e6"/><path d="M134.94595,86.73726c-1.16075,-0.57467 -1.28253,-1.49565 -0.69645,-2.64499l3.13593,-5.40415c0.69645,-1.03135 1.62505,-1.26731 2.67163,-0.57086c4.06453,2.64118 9.63612,4.7115 16.37228,4.7115c5.92553,0 9.52195,-2.18449 9.52195,-6.20716c0,-3.68015 -2.7858,-5.51832 -11.26498,-7.59244c-10.45055,-2.52701 -19.0401,-6.55348 -19.0401,-15.98409c0,-9.54479 8.3574,-15.64157 20.9011,-15.64157c8.01869,0 14.3971,2.06651 18.92592,4.71911c1.04658,0.57086 1.28253,1.49185 0.58228,2.64118l-2.90378,5.28997c-0.58228,1.03516 -1.51088,1.27112 -2.67163,0.57467c-4.52883,-2.41284 -8.94348,-3.79432 -14.51508,-3.79432c-4.99313,0 -8.59335,1.724 -8.59335,5.63249c0,3.4518 3.2501,4.83328 12.30775,7.01778c11.26498,2.87714 18.00113,6.67146 18.00113,16.56256c0,9.65896 -8.3612,16.21244 -21.94768,16.21244c-8.35359,-0.01142 -15.21153,-2.1883 -20.78693,-5.52212zM210.56212,37.27792c-16.14393,0 -27.40891,11.96143 -27.40891,27.47741c0,15.75575 12.19358,27.48122 28.80181,27.48122c9.86827,0 16.14013,-2.9875 19.9725,-5.86083c0.9286,-0.80682 1.04658,-1.7278 0.4643,-2.76296l-3.01795,-4.94746c-0.58228,-1.14553 -1.51088,-1.26731 -2.55745,-0.45669c-3.13212,2.06271 -7.19665,4.36898 -13.58648,4.36898c-9.98625,0 -17.1867,-6.09679 -18.5796,-14.48844h39.59868c1.16456,0 1.8572,-0.69264 1.97898,-1.95615v-1.82675c0,-15.86992 -10.34018,-27.02834 -25.66588,-27.02834zM225.19137,59.93347h-30.41925c1.62505,-8.16711 7.77892,-13.34291 16.14013,-13.34291c7.55058,0 13.47231,5.28997 14.28293,13.11076v0.23215zM242.96035,64.88092c0,-15.64157 12.65788,-27.603 29.03015,-27.603c8.47918,0 13.70065,2.29866 17.30468,4.60494c1.04277,0.80682 1.28253,1.7278 0.57847,2.87714l-3.01795,5.1758c-0.58228,1.03516 -1.62505,1.14933 -2.67163,0.57086c-2.67163,-1.60602 -6.27185,-2.75916 -10.91485,-2.75916c-11.03283,0 -18.46543,7.24993 -18.46543,17.13723c0,9.66276 7.4326,16.90508 18.00113,16.90508c5.22528,0 8.59335,-1.14933 11.38676,-2.64499c1.16075,-0.68884 1.97137,-0.45669 2.43567,0.46049l3.13593,5.51832c0.58228,1.15314 0.35013,1.95615 -0.69264,2.64879c-2.7896,1.724 -8.02249,4.48316 -17.07253,4.48316c-17.19431,-0.00761 -29.03777,-11.96523 -29.03777,-27.37846zM391.37263,39.57658l-0.69645,7.3641c-0.11417,1.37768 -0.9286,1.83817 -2.20733,1.60602c-0.98629,-0.2478 -2.00121,-0.36299 -3.01795,-0.34252c-9.98625,0 -15.09735,7.36029 -15.21153,14.83476v26.22152c0,1.27112 -0.70026,1.95615 -1.97518,1.95615h-7.66475c-1.16075,0 -1.97518,-0.69264 -1.97518,-1.95615v-48.99124c0,-1.27112 0.81443,-1.95615 1.97518,-1.95615h6.0397c1.16075,0 1.97518,0.68884 1.97518,1.83817l0.34632,8.51343c2.20733,-6.21096 8.59335,-11.38676 18.12672,-11.38676c0.85248,-0.01903 1.70497,0.01903 2.54984,0.11417c1.27112,0.11417 1.85339,1.03516 1.73542,2.18449zM400.71952,89.26047v-78.20407c0,-1.27112 0.81062,-1.95615 1.97137,-1.95615h7.66475c1.28253,0 1.97898,0.69264 1.97898,1.95615v78.20407c0,1.27112 -0.70026,1.95615 -1.97898,1.95615h-7.66475c-1.16075,0 -1.97137,-0.69264 -1.97137,-1.95615zM475.03032,40.61555l-19.74035,46.5746l-10.56853,24.96182c-0.33415,0.92403 -1.22526,1.52784 -2.20733,1.49565h-7.54677c-1.3929,0 -2.08554,-0.92099 -1.50707,-2.18449l8.24322,-20.24652l-22.06566,-50.60106c-0.57847,-1.38148 0,-2.30247 1.39671,-2.30247h8.94348c1.04277,0 1.85339,0.45669 2.20733,1.49565l15.67202,38.29712l15.44748,-38.29712c0.34632,-1.03516 1.16075,-1.49565 2.20733,-1.49565h8.12525c1.3929,0 1.97518,0.9286 1.3929,2.30247zM346.56009,38.30927h-7.78273c-1.16075,0 -1.8572,0.68884 -1.8572,1.95615v25.06838c0,9.57143 -5.35467,15.75194 -13.47231,15.86992h-0.50616c-8.11002,-0.11798 -13.47231,-6.29849 -13.47231,-15.86992v-25.06838c0,-1.27112 -0.69645,-1.95615 -1.8572,-1.95615h-7.77892c-1.16456,0 -1.861,0.68884 -1.861,1.95615v27.37085c0,13.77676 8.44873,23.15029 20.86685,24.45946c1.40812,0.17506 2.81624,0.25498 4.23198,0.24737c1.18739,0.00381 2.37478,-0.04947 3.55456,-0.15984c12.85958,-0.9286 21.78784,-10.42772 21.78784,-24.53558v-27.38227c0,-1.26731 -0.69264,-1.95615 -1.85339,-1.95615z" fill="#171b1f"/></g><g fill="#ff0000" font-family="Sans Serif" font-weight="normal" font-size="40" text-anchor="start"><text transform="translate(31.60148,297.53397) scale(1.00726,1.00726)" font-size="40" xml:space="preserve" fill="#ff0000" fill-rule="nonzero" stroke="none" stroke-width="1" stroke-linecap="butt" stroke-linejoin="miter" stroke-miterlimit="10" stroke-dasharray="" stroke-dashoffset="0" font-family="Sans Serif" font-weight="normal" text-anchor="start" style="mix-blend-mode: normal"><tspan x="0" dy="0">Error Loading Screen!</tspan></text><text transform="translate(94.86899,332.79708) scale(0.60787,0.60787)" font-size="40" xml:space="preserve" fill="#ff0000" fill-rule="nonzero" stroke="none" stroke-width="1" stroke-linecap="butt" stroke-linejoin="miter" stroke-miterlimit="10" stroke-dasharray="" stroke-dashoffset="0" font-family="Sans Serif" font-weight="normal" text-anchor="start" style="mix-blend-mode: normal"><tspan x="0" dy="0">Packet Stream Corrupted</tspan></text></g></g></g></svg>